<svg width="64" height="64" viewBox="0 0 64 64" fill="none" xmlns="http://www.w3.org/2000/svg">
<rect width="64" height="64" fill="#85D4DE"/>
<g clip-path="url(#clip0_8_9)">
<path d="M17.0458 16.4662L35.859 15.0766C38.17 14.8784 38.7636 15.012 40.2168 16.0684L46.2222 20.299C47.2126 21.0266 47.5424 21.2248 47.5424 22.017V45.2196C47.5424 46.6738 47.0144 47.534 45.1658 47.6652L23.3188 48.9885C21.9316 49.0541 21.271 48.8559 20.5444 47.9301L16.122 42.1793C15.3288 41.1209 15 40.3287 15 39.4026V18.7782C15 17.5892 15.528 16.5977 17.0458 16.4662Z" fill="white"/>
<path fill-rule="evenodd" clip-rule="evenodd" d="M35.859 15.0769L17.0458 16.4665C15.528 16.5977 15 17.5895 15 18.7782V39.4026C15 40.3284 15.3288 41.1206 16.122 42.1793L20.5444 47.9298C21.271 48.8556 21.9316 49.0541 23.3188 48.9882L45.1662 47.6656C47.0134 47.534 47.5428 46.6738 47.5428 45.22V22.0173C47.5428 21.2659 47.2459 21.0494 46.3721 20.4081L40.2168 16.0684C38.764 15.012 38.17 14.8784 35.859 15.0766V15.0769ZM23.8128 21.6376C22.0288 21.7576 21.6242 21.7848 20.611 20.961L18.0352 18.9121C17.7734 18.6469 17.905 18.3161 18.5646 18.2501L36.6502 16.9286C38.169 16.796 38.9598 17.3253 39.5538 17.7877L42.6556 20.0351C42.7882 20.1021 43.118 20.4975 42.7212 20.4975L24.044 21.6219L23.8128 21.6376ZM21.733 45.0217V25.3245C21.733 24.4643 21.9972 24.0675 22.788 24.0009L44.24 22.7449C44.9676 22.6793 45.2964 23.1417 45.2964 24.0006V43.5665C45.2964 44.4267 45.1638 45.1543 43.9762 45.22L23.448 46.41C22.2604 46.4756 21.7334 46.0802 21.7334 45.0217H21.733ZM41.997 26.3806C42.1286 26.9756 41.997 27.5706 41.402 27.6386L40.4126 27.8347V42.3776C39.5534 42.84 38.7626 43.1041 38.1016 43.1041C37.0453 43.1041 36.7814 42.7733 35.9902 41.7826L29.52 31.603V41.4517L31.5668 41.9152C31.5668 41.9152 31.5668 43.1052 29.9155 43.1052L25.3629 43.3693C25.2303 43.1041 25.3629 42.4435 25.8242 42.3119L27.0132 41.9821V28.9601L25.3632 28.8265C25.2306 28.2315 25.5604 27.3723 26.4852 27.3057L31.37 26.9769L38.102 37.2881V28.1659L36.386 27.9687C36.2534 27.2401 36.7814 26.7107 37.441 26.6461L41.997 26.3806Z" fill="black"/>
</g>
<defs>
<clipPath id="clip0_8_9">
<rect width="34" height="34" fill="white" transform="translate(15 15)"/>
</clipPath>
</defs>
</svg>
