<svg width="64" height="64" viewBox="0 0 64 64" fill="none" xmlns="http://www.w3.org/2000/svg">
<rect width="64" height="64" fill="black"/>
<path d="M15.5776 31.4894C14.8043 31.4894 14.1771 31.2766 13.696 30.8511C13.232 30.4255 13 29.8723 13 29.1915C13 28.4936 13.232 27.9404 13.696 27.5319C14.1771 27.1064 14.8043 26.8936 15.5776 26.8936C16.3509 26.8936 16.9696 27.1064 17.4335 27.5319C17.9147 27.9404 18.1553 28.4936 18.1553 29.1915C18.1553 29.8723 17.9147 30.4255 17.4335 30.8511C16.9696 31.2766 16.3509 31.4894 15.5776 31.4894ZM15.5776 41.4468C14.8043 41.4468 14.1771 41.234 13.696 40.8085C13.232 40.383 13 39.8298 13 39.1489C13 38.4511 13.232 37.8979 13.696 37.4894C14.1771 37.0638 14.8043 36.8511 15.5776 36.8511C16.3509 36.8511 16.9696 37.0638 17.4335 37.4894C17.9147 37.8979 18.1553 38.4511 18.1553 39.1489C18.1553 39.8298 17.9147 40.383 17.4335 40.8085C16.9696 41.234 16.3509 41.4468 15.5776 41.4468Z" fill="#2FE3BE"/>
<path d="M38.1118 44L47.0047 20H51L42.1072 44H38.1118ZM26.5125 44L35.4053 20H39.4006L30.5078 44H26.5125Z" fill="#2FE3BE"/>
</svg>
