
<svg width="64" height="64" viewBox="0 0 64 64" fill="none" xmlns="http://www.w3.org/2000/svg">
<g clip-path="url(#clip0_1_4)">
<rect width="64" height="64" fill="#0089FF"/>
<path d="M0 0H64V64H0V0Z" fill="#0089FF"/>
<path d="M49.02 21.742C48.2532 21.745 47.4982 21.9308 46.8176 22.2838C46.1369 22.6368 45.5502 23.147 45.106 23.772L39.196 32.112C39.0874 32.2696 38.9423 32.3986 38.773 32.4879C38.6038 32.5772 38.4154 32.6243 38.224 32.625C37.9074 32.6234 37.6043 32.4965 37.3811 32.2719C37.1579 32.0474 37.0327 31.7436 37.033 31.427C37.033 31.182 37.106 30.937 37.227 30.767L42.212 23.258C42.7418 22.4614 43.0214 21.5247 43.015 20.568C43.015 17.902 40.875 15.75 38.225 15.75H13.13V20.568H34.625C34.625 21.888 33.555 22.989 32.218 22.989H13.13C13.13 24.701 13.495 26.339 14.127 27.807H29.811C29.811 29.127 28.741 30.228 27.404 30.228H15.513C16.6255 31.7265 18.0741 32.943 19.7423 33.7798C21.4105 34.6165 23.2517 35.0502 25.118 35.046H31.027C31.683 35.046 32.218 35.584 32.218 36.245C32.218 36.905 31.683 37.443 31.027 37.443H25.117L17.095 49.5H31.61C38.248 49.5 43.89 45.147 45.86 39.13L48.559 30.889C49.4313 28.2465 51.0124 25.8944 53.13 24.089C52.7072 23.3751 52.106 22.7834 51.3854 22.3719C50.6649 21.9604 49.8498 21.7434 49.02 21.742ZM49.02 25.068C48.7817 25.0639 48.5545 24.967 48.3864 24.7981C48.2184 24.6291 48.1228 24.4013 48.12 24.163C48.12 23.673 48.534 23.258 49.02 23.258C49.507 23.258 49.92 23.674 49.92 24.163C49.9207 24.2816 49.8979 24.3992 49.8529 24.509C49.808 24.6187 49.7418 24.7185 49.6582 24.8026C49.5745 24.8867 49.4751 24.9535 49.3656 24.999C49.2561 25.0446 49.1386 25.068 49.02 25.068Z" fill="white"/>
</g>
<defs>
<clipPath id="clip0_1_4">
<rect width="64" height="64" fill="white"/>
</clipPath>
</defs>
</svg>
